<svg width="22" height="24" viewBox="0 0 22 24" fill="none" xmlns="http://www.w3.org/2000/svg">
<path d="M21.5844 5.51566C21.5844 5.42455 21.4622 5.33345 21.4011 5.24234L21.2911 5.11219C21.0066 4.73799 20.6475 4.43571 20.24 4.22715L12.4178 0.322568C11.9847 0.110048 11.5135 0 11.0367 0C10.5598 0 10.0886 0.110048 9.65555 0.322568L1.83333 4.22715C1.42787 4.43925 1.06954 4.74097 0.782222 5.11219L0.635556 5.17726C0.56446 5.25552 0.502867 5.34297 0.452222 5.43757C0.160645 5.92852 0.00398999 6.49661 0 7.07749V16.2663C0.00163532 16.8871 0.170676 17.4943 0.487016 18.0158C0.803357 18.5372 1.25369 18.9509 1.78444 19.2077L9.60667 23.1123C10.0414 23.3268 10.5148 23.4379 10.9939 23.4379C11.473 23.4379 11.9464 23.3268 12.3811 23.1123L20.2033 19.2077C20.7326 18.9547 21.183 18.5458 21.5013 18.0293C21.8196 17.5127 21.9926 16.9101 22 16.2923V7.07749C21.9937 6.52689 21.8503 5.98793 21.5844 5.51566ZM10.6456 2.6523C10.7574 2.60072 10.8781 2.57411 11 2.57411C11.1219 2.57411 11.2426 2.60072 11.3544 2.6523L17.8689 5.88009L11 9.27707L4.13111 5.88009L10.6456 2.6523ZM2.81111 16.891C2.7047 16.8471 2.61299 16.7704 2.54768 16.6707C2.48238 16.571 2.44644 16.4529 2.44444 16.3313V7.91047L9.77778 11.5417V20.288L2.81111 16.891ZM19.1767 16.891L12.2222 20.288V11.5417L19.5556 7.91047V16.2923C19.5584 16.4216 19.5234 16.5486 19.4555 16.6558C19.3877 16.7631 19.2902 16.8452 19.1767 16.891Z" fill="#A4A4A4"/>
</svg>
