<svg width="22" height="24" viewBox="0 0 22 23" fill="none" xmlns="http://www.w3.org/2000/svg">
<g clip-path="url(#clip0_8734_10535)">
<path d="M12.5212 10.9977H15.8728C16.1993 10.9977 16.4657 10.7236 16.4657 10.3777C16.4657 10.0363 16.1993 9.75781 15.8728 9.75781H12.5212C12.1946 9.75781 11.9282 10.0363 11.9282 10.3777C11.9282 10.7191 12.1946 10.9977 12.5212 10.9977Z" fill="#A4A4A4"/>
<path d="M18.7129 7.12988H8.6668L7.03398 5.32852C6.89219 5.17578 6.70312 5.08594 6.50117 5.08594L0.747656 5.04102C0.545703 5.04551 0.365234 5.12187 0.223437 5.26562C0.0816406 5.40938 0.00429688 5.60703 0.00429688 5.81367L0 19.726C0 19.9326 0.0773437 20.1303 0.214844 20.274C0.356641 20.4178 0.541406 20.4986 0.739063 20.4986H18.7043C19.1125 20.4986 19.4434 20.1527 19.4477 19.7215L19.452 7.90254C19.452 7.6959 19.3746 7.49824 19.2371 7.35449C19.0953 7.21074 18.9105 7.12988 18.7129 7.12988ZM17.9652 18.9533H1.47813L1.47383 6.59531L6.17031 6.63125L7.80742 8.43711C7.94922 8.59434 8.14258 8.67969 8.34453 8.67969H17.9695L17.9652 18.9533Z" fill="#A4A4A4"/>
<path d="M21.7851 4.78027C21.6476 4.63652 21.4585 4.55566 21.2608 4.55566H11.2147L9.58193 2.7543C9.44443 2.60156 9.25108 2.51621 9.04912 2.51172L3.29561 2.4668H3.29131C3.09795 2.4668 2.90889 2.54766 2.77139 2.69141C2.62959 2.83516 2.55225 3.03281 2.55225 3.23945V4.44785H4.03037V4.02109L8.72686 4.05703L10.364 5.86289C10.5058 6.01562 10.6991 6.10547 10.9011 6.10547H20.5261L20.5218 16.3791H19.9202V17.9244H21.2608C21.669 17.9244 21.9999 17.5785 21.9999 17.1518L22.0042 5.32832C21.9999 5.12168 21.9226 4.92402 21.7851 4.78027Z" fill="#A4A4A4"/>
</g>
<defs>
<clipPath id="clip0_8734_10535">
<rect width="22" height="23" fill="white"/>
</clipPath>
</defs>
</svg>
