<svg width="22" height="24" viewBox="0 -4 28 30" fill="none" xmlns="http://www.w3.org/2000/svg">
<g filter="url(#filter0_d_8734_10532)">
<path d="M23.6786 4.98561L22.2612 3.43519L23.6786 1.88478C23.8666 1.67773 23.9722 1.3969 23.9722 1.10408C23.9722 0.81126 23.8666 0.530433 23.6786 0.323378C23.4907 0.116322 23.2357 0 22.9699 0C22.7041 0 22.4491 0.116322 22.2612 0.323378L11.7398 11.913C10.7077 11.1629 9.45951 10.8615 8.23717 11.0673C7.01484 11.273 5.90536 11.9713 5.12371 13.0267C4.34206 14.0821 3.9439 15.4195 4.00638 16.7799C4.06886 18.1402 4.58752 19.4266 5.46188 20.3897C6.33624 21.3528 7.50403 21.9242 8.73897 21.993C9.97392 22.0618 11.1881 21.6232 12.1462 20.7622C13.1044 19.9012 13.7382 18.6791 13.925 17.3326C14.1118 15.9862 13.8382 14.6113 13.1573 13.4744L18.0286 8.09742L19.4362 9.65883C19.5294 9.76074 19.64 9.84137 19.7617 9.89609C19.8833 9.95081 20.0135 9.97854 20.1449 9.97771C20.2763 9.97854 20.4065 9.95081 20.5281 9.89609C20.6497 9.84137 20.7604 9.76074 20.8536 9.65883C20.9472 9.55661 21.0215 9.43499 21.0721 9.301C21.1228 9.167 21.1489 9.02328 21.1489 8.87812C21.1489 8.73297 21.1228 8.58925 21.0721 8.45525C21.0215 8.32126 20.9472 8.19964 20.8536 8.09742L19.4362 6.60199L20.8536 5.04058L22.2612 6.60199C22.3544 6.7039 22.465 6.78453 22.5867 6.83925C22.7083 6.89397 22.8385 6.92171 22.9699 6.92087C23.1013 6.92171 23.2315 6.89397 23.3531 6.83925C23.4747 6.78453 23.5854 6.7039 23.6786 6.60199C23.78 6.49902 23.8608 6.37405 23.9161 6.23496C23.9714 6.09586 24 5.94565 24 5.7938C24 5.64194 23.9714 5.49174 23.9161 5.35264C23.8608 5.21354 23.78 5.08857 23.6786 4.98561ZM8.99466 19.797C8.40237 19.797 7.82337 19.6035 7.3309 19.241C6.83843 18.8786 6.45459 18.3634 6.22793 17.7606C6.00127 17.1578 5.94196 16.4946 6.05751 15.8547C6.17306 15.2148 6.45828 14.627 6.87709 14.1657C7.29591 13.7043 7.82951 13.3901 8.41043 13.2629C8.99134 13.1356 9.59347 13.2009 10.1407 13.4506C10.6879 13.7003 11.1556 14.1231 11.4847 14.6655C11.8137 15.208 11.9894 15.8458 11.9894 16.4982C11.9894 17.3731 11.6738 18.2122 11.1122 18.8308C10.5506 19.4494 9.7889 19.797 8.99466 19.797Z" fill="#A5A5A5"/>
</g>
<defs>
<filter id="filter0_d_8734_10532" x="0" y="0" width="28" height="30" filterUnits="userSpaceOnUse" color-interpolation-filters="sRGB">
<feFlood flood-opacity="0" result="BackgroundImageFix"/>
<feColorMatrix in="SourceAlpha" type="matrix" values="0 0 0 0 0 0 0 0 0 0 0 0 0 0 0 0 0 0 127 0" result="hardAlpha"/>
<feOffset dy="4"/>
<feGaussianBlur stdDeviation="2"/>
<feComposite in2="hardAlpha" operator="out"/>
<feColorMatrix type="matrix" values="0 0 0 0 0 0 0 0 0 0 0 0 0 0 0 0 0 0 0.25 0"/>
<feBlend mode="normal" in2="BackgroundImageFix" result="effect1_dropShadow_8734_10532"/>
<feBlend mode="normal" in="SourceGraphic" in2="effect1_dropShadow_8734_10532" result="shape"/>
</filter>
</defs>
</svg>
