<svg width="38" height="30" viewBox="0 0 38 30" fill="none" xmlns="http://www.w3.org/2000/svg">
<path d="M17.2853 19.9668C20.1556 20.9161 23.0919 21.6987 26.0757 22.3096C24.7048 23.4902 22.9893 24.3035 21.1249 24.6568C19.2605 25.0101 17.3222 24.8892 15.5312 24.3079C13.7401 23.7266 12.1683 22.7083 10.9951 21.3691C9.82184 20.0299 9.09435 18.4237 8.89557 16.7337C11.6121 17.9696 14.4143 19.0495 17.2853 19.9668ZM17.7386 18.8657C14.6825 17.8912 11.7113 16.7166 8.84958 15.3514C8.93247 13.4884 9.66508 11.6949 10.9454 10.2206C11.1512 9.98633 11.3702 9.75791 11.6024 9.53534C11.7075 9.43577 11.8192 9.3362 11.9308 9.24248C13.817 7.59097 16.3563 6.66736 19 6.67122C21.5127 6.6731 23.936 7.50314 25.8037 9.00172C27.6714 10.5003 28.8517 12.5616 29.1176 14.7891C29.1573 15.1061 29.177 15.4249 29.1767 15.7438V16.1363C29.097 18.0034 28.3642 19.8015 27.0809 21.2788C23.9056 20.6763 20.7834 19.8698 17.7386 18.8657ZM13.6062 11.0465C14.4573 10.2818 15.4989 9.70708 16.6463 9.36917C17.7936 9.03126 19.0143 8.93969 20.2089 9.10191C20.2948 9.1153 20.3828 9.11329 20.4679 9.09601C20.5529 9.07873 20.6333 9.04653 20.7042 9.00128C20.7752 8.95602 20.8353 8.89863 20.8811 8.83244C20.9269 8.76626 20.9574 8.6926 20.971 8.61578C20.9899 8.46566 20.9431 8.31483 20.8402 8.19477C20.7374 8.07471 20.5865 7.99472 20.4191 7.9715C19.9506 7.89546 19.4761 7.85237 19 7.84264C17.8173 7.84638 16.6473 8.05956 15.5578 8.46979C14.4683 8.88002 13.4811 9.47913 12.6535 10.2323C12.5312 10.3421 12.4625 10.4905 12.4625 10.6453C12.4625 10.8 12.5312 10.9484 12.6535 11.0582C12.7766 11.1673 12.9431 11.2285 13.1167 11.2285C13.2903 11.2285 13.4568 11.1673 13.5799 11.0582L13.6062 11.0465ZM8.85615 16.3178V15.3456C8.4094 15.1347 7.98894 14.9239 7.58817 14.7071C3.83679 12.7509 1.9184 11.0465 2.23375 10.3143C2.47026 9.72862 4.62517 9.24248 9.51971 9.99219C9.80342 9.61884 10.1174 9.26451 10.4592 8.93206C6.82607 8.34635 1.83299 7.8895 1.01833 9.89262C0.361342 11.5795 3.18638 13.8637 7.54876 16.0426C7.94952 16.2417 8.35685 16.4408 8.78389 16.6283L8.91528 16.6868C8.91528 16.5697 8.90214 16.4526 8.87586 16.3354L8.85615 16.3178ZM30.4972 15.451V15.7438C30.4989 16.0822 30.4813 16.4204 30.4447 16.7571C34.6954 18.9652 36.0356 20.5935 35.7925 21.1851C35.6283 21.5834 34.2946 22.1574 30.333 21.7415C29.7483 21.6771 29.1373 21.6009 28.5066 21.5014L27.5408 21.3608H27.462L27.1203 21.2964C27.0415 21.3901 26.9627 21.4779 26.8773 21.5658C26.6545 21.8053 26.4177 22.034 26.1677 22.2511L26.1151 22.2979C26.6342 22.3975 27.1269 22.4912 27.6196 22.5732C27.5794 22.6208 27.5355 22.6658 27.4882 22.7079L27.6262 22.5732C28.5329 22.7255 29.3935 22.8485 30.2082 22.9305C31.0799 23.0292 31.9574 23.0821 32.8361 23.0886C35.2407 23.0886 36.6532 22.5908 37.0539 21.6127C37.8423 19.6095 33.7625 17.0968 30.4972 15.451ZM32.0543 7.09293C32.7955 7.09409 33.5204 6.89913 34.1373 6.53273C34.7541 6.16633 35.2351 5.64498 35.5194 5.0347C35.8036 4.42443 35.8783 3.75267 35.734 3.10452C35.5897 2.45636 35.233 1.86095 34.7088 1.39369C34.1847 0.926438 33.5169 0.608354 32.7898 0.479723C32.0628 0.351091 31.3093 0.417699 30.6247 0.671111C29.9402 0.924522 29.3554 1.35334 28.9444 1.90326C28.5334 2.45317 28.3147 3.09945 28.316 3.76025C28.3178 4.64366 28.7122 5.49044 29.4129 6.1151C30.1136 6.73977 31.0634 7.09138 32.0543 7.09293ZM20.314 2.94612C20.4335 2.94612 20.5504 2.91451 20.6498 2.8553C20.7492 2.79609 20.8266 2.71194 20.8724 2.61347C20.9181 2.51501 20.9301 2.40667 20.9068 2.30214C20.8835 2.19761 20.8259 2.1016 20.7414 2.02624C20.6568 1.95088 20.5491 1.89956 20.4319 1.87876C20.3146 1.85797 20.1931 1.86864 20.0827 1.90943C19.9722 1.95021 19.8778 2.01928 19.8114 2.10789C19.745 2.19651 19.7095 2.30069 19.7095 2.40726C19.7095 2.55018 19.7732 2.68723 19.8866 2.78829C19.9999 2.88934 20.1537 2.94612 20.314 2.94612ZM11.7732 1.18899C11.8927 1.18899 12.0096 1.15739 12.109 1.09818C12.2084 1.03897 12.2858 0.954809 12.3316 0.856347C12.3773 0.757884 12.3893 0.649539 12.366 0.545012C12.3427 0.440485 12.2851 0.344471 12.2006 0.269111C12.116 0.193751 12.0083 0.142431 11.8911 0.121639C11.7738 0.100847 11.6523 0.111518 11.5419 0.152303C11.4314 0.193087 11.337 0.262153 11.2706 0.350767C11.2042 0.439381 11.1687 0.543562 11.1687 0.650137C11.1687 0.7209 11.1844 0.79097 11.2148 0.856347C11.2451 0.921723 11.2896 0.981126 11.3458 1.03116C11.4019 1.0812 11.4685 1.12089 11.5419 1.14797C11.6152 1.17505 11.6938 1.18899 11.7732 1.18899ZM31.5353 11.1929C31.5353 11.2995 31.5707 11.4037 31.6371 11.4923C31.7035 11.5809 31.7979 11.6499 31.9084 11.6907C32.0188 11.7315 32.1404 11.7422 32.2576 11.7214C32.3749 11.7006 32.4826 11.6493 32.5671 11.5739C32.6516 11.4986 32.7092 11.4025 32.7325 11.298C32.7558 11.1935 32.7439 11.0851 32.6981 10.9867C32.6524 10.8882 32.5749 10.8041 32.4755 10.7449C32.3761 10.6856 32.2592 10.654 32.1397 10.654C31.9794 10.654 31.8257 10.7108 31.7123 10.8119C31.599 10.9129 31.5353 11.05 31.5353 11.1929ZM37.3956 9.38891C37.5151 9.38891 37.632 9.35731 37.7314 9.2981C37.8308 9.23889 37.9082 9.15473 37.954 9.05627C37.9997 8.95781 38.0117 8.84946 37.9884 8.74493C37.9651 8.64041 37.9075 8.54439 37.823 8.46903C37.7384 8.39367 37.6307 8.34235 37.5135 8.32156C37.3962 8.30077 37.2747 8.31144 37.1643 8.35222C37.0538 8.39301 36.9594 8.46207 36.893 8.55069C36.8266 8.6393 36.7912 8.74348 36.7912 8.85006C36.7912 8.92082 36.8068 8.99089 36.8372 9.05627C36.8675 9.12164 36.9121 9.18105 36.9682 9.23108C37.0243 9.28112 37.0909 9.32081 37.1643 9.34789C37.2376 9.37497 37.3162 9.38891 37.3956 9.38891ZM37.3956 14.754C37.276 14.754 37.1592 14.7856 37.0598 14.8448C36.9604 14.904 36.8829 14.9882 36.8372 15.0866C36.7914 15.1851 36.7794 15.2935 36.8028 15.398C36.8261 15.5025 36.8837 15.5985 36.9682 15.6739C37.0527 15.7492 37.1604 15.8006 37.2777 15.8214C37.3949 15.8421 37.5164 15.8315 37.6269 15.7907C37.7373 15.7499 37.8317 15.6808 37.8981 15.5922C37.9646 15.5036 38 15.3994 38 15.2929C38 15.1499 37.9363 15.0129 37.823 14.9118C37.7096 14.8108 37.5559 14.754 37.3956 14.754ZM0.604426 14.754C0.484882 14.754 0.368023 14.7856 0.268625 14.8448C0.169228 14.904 0.0917571 14.9882 0.0460095 15.0866C0.000261936 15.1851 -0.0117078 15.2935 0.0116141 15.398C0.034936 15.5025 0.0925021 15.5985 0.177033 15.6739C0.261563 15.7492 0.369261 15.8006 0.486509 15.8214C0.603756 15.8421 0.725286 15.8315 0.83573 15.7907C0.946175 15.7499 1.04057 15.6808 1.10699 15.5922C1.1734 15.5036 1.20885 15.3994 1.20885 15.2929C1.20885 15.1499 1.14517 15.0129 1.03182 14.9118C0.918468 14.8108 0.76473 14.754 0.604426 14.754ZM3.88935 20.6111C3.76981 20.6111 3.65295 20.6427 3.55355 20.7019C3.45415 20.7611 3.37668 20.8453 3.33093 20.9437C3.28519 21.0422 3.27322 21.1505 3.29654 21.2551C3.31986 21.3596 3.37743 21.4556 3.46196 21.531C3.54649 21.6063 3.65419 21.6576 3.77143 21.6784C3.88868 21.6992 4.01021 21.6886 4.12065 21.6478C4.2311 21.607 4.3255 21.5379 4.39191 21.4493C4.45833 21.3607 4.49378 21.2565 4.49378 21.1499C4.49378 21.007 4.4301 20.87 4.31674 20.7689C4.20339 20.6679 4.04965 20.6111 3.88935 20.6111ZM1.9184 25.2968C1.79885 25.2968 1.68199 25.3284 1.58259 25.3876C1.4832 25.4468 1.40573 25.5309 1.35998 25.6294C1.31423 25.7279 1.30226 25.8362 1.32558 25.9407C1.34891 26.0453 1.40647 26.1413 1.491 26.2166C1.57553 26.292 1.68323 26.3433 1.80048 26.3641C1.91773 26.3849 2.03926 26.3742 2.1497 26.3334C2.26014 26.2927 2.35454 26.2236 2.42096 26.135C2.48737 26.0464 2.52282 25.9422 2.52282 25.8356C2.52282 25.7648 2.50719 25.6948 2.47681 25.6294C2.44644 25.564 2.40192 25.5046 2.34579 25.4546C2.28966 25.4045 2.22303 25.3649 2.1497 25.3378C2.07637 25.3107 1.99777 25.2968 1.9184 25.2968ZM28.8548 25.2968C28.7352 25.2968 28.6184 25.3284 28.519 25.3876C28.4196 25.4468 28.3421 25.5309 28.2964 25.6294C28.2506 25.7279 28.2386 25.8362 28.262 25.9407C28.2853 26.0453 28.3428 26.1413 28.4274 26.2166C28.5119 26.292 28.6196 26.3433 28.7369 26.3641C28.8541 26.3849 28.9756 26.3742 29.0861 26.3334C29.1965 26.2927 29.2909 26.2236 29.3573 26.135C29.4238 26.0464 29.4592 25.9422 29.4592 25.8356C29.4592 25.7648 29.4436 25.6948 29.4132 25.6294C29.3828 25.564 29.3383 25.5046 29.2822 25.4546C29.226 25.4045 29.1594 25.3649 29.0861 25.3378C29.0127 25.3107 28.9341 25.2968 28.8548 25.2968ZM32.7967 28.2253C32.6771 28.2253 32.5603 28.2569 32.4609 28.3161C32.3615 28.3753 32.284 28.4595 32.2383 28.5579C32.1925 28.6564 32.1806 28.7648 32.2039 28.8693C32.2272 28.9738 32.2848 29.0698 32.3693 29.1452C32.4538 29.2205 32.5615 29.2719 32.6788 29.2927C32.796 29.3134 32.9175 29.3028 33.028 29.262C33.1384 29.2212 33.2328 29.1521 33.2992 29.0635C33.3657 28.9749 33.4011 28.8707 33.4011 28.7642C33.4011 28.6212 33.3374 28.4842 33.2241 28.3831C33.1107 28.2821 32.957 28.2253 32.7967 28.2253ZM5.8603 5.28895C5.97985 5.28895 6.09671 5.25735 6.19611 5.19814C6.2955 5.13893 6.37297 5.05477 6.41872 4.95631C6.46447 4.85785 6.47644 4.7495 6.45312 4.64497C6.42979 4.54045 6.37223 4.44443 6.2877 4.36907C6.20317 4.29371 6.09547 4.24239 5.97822 4.2216C5.86098 4.20081 5.73945 4.21148 5.629 4.25226C5.51856 4.29305 5.42416 4.36211 5.35774 4.45073C5.29133 4.53934 5.25588 4.64352 5.25588 4.7501C5.25588 4.89301 5.31956 5.03007 5.43291 5.13112C5.54626 5.23218 5.7 5.28895 5.8603 5.28895ZM11.7009 4.16439C11.7009 4.29297 11.7437 4.41867 11.8238 4.52559C11.9039 4.6325 12.0178 4.71583 12.1511 4.76504C12.2843 4.81424 12.431 4.82712 12.5724 4.80203C12.7139 4.77695 12.8438 4.71503 12.9458 4.6241C13.0478 4.53318 13.1173 4.41734 13.1454 4.29122C13.1735 4.16511 13.1591 4.03439 13.1039 3.91559C13.0487 3.7968 12.9552 3.69526 12.8353 3.62382C12.7154 3.55238 12.5744 3.51425 12.4302 3.51425C12.2367 3.51425 12.0513 3.58275 11.9145 3.70467C11.7777 3.8266 11.7009 3.99196 11.7009 4.16439ZM6.51729 24.5998C6.37306 24.5998 6.23206 24.6379 6.11214 24.7093C5.99221 24.7808 5.89874 24.8823 5.84355 25.0011C5.78835 25.1199 5.77391 25.2506 5.80205 25.3767C5.83019 25.5028 5.89964 25.6187 6.00163 25.7096C6.10362 25.8005 6.23356 25.8625 6.37502 25.8875C6.51648 25.9126 6.66311 25.8998 6.79636 25.8505C6.92962 25.8013 7.04351 25.718 7.12364 25.6111C7.20377 25.5042 7.24654 25.3785 7.24654 25.2499C7.24654 25.0775 7.16971 24.9121 7.03295 24.7902C6.89619 24.6683 6.7107 24.5998 6.51729 24.5998ZM20.314 28.6997C20.1697 28.6997 20.0287 28.7379 19.9088 28.8093C19.7889 28.8807 19.6954 28.9823 19.6402 29.1011C19.585 29.2199 19.5706 29.3506 19.5987 29.4767C19.6269 29.6028 19.6963 29.7187 19.7983 29.8096C19.9003 29.9005 20.0302 29.9624 20.1717 29.9875C20.3132 30.0126 20.4598 29.9997 20.593 29.9505C20.7263 29.9013 20.8402 29.818 20.9203 29.7111C21.0005 29.6041 21.0432 29.4784 21.0432 29.3499C21.0432 29.1774 20.9664 29.0121 20.8296 28.8901C20.6929 28.7682 20.5074 28.6997 20.314 28.6997ZM23.5989 1.30027C23.7431 1.30027 23.8841 1.26214 24.004 1.19071C24.124 1.11927 24.2174 1.01773 24.2726 0.898933C24.3278 0.780136 24.3423 0.649416 24.3141 0.523302C24.286 0.397187 24.2165 0.281344 24.1146 0.190421C24.0126 0.0994976 23.8826 0.0375782 23.7412 0.0124925C23.5997 -0.0125932 23.4531 0.00028161 23.3198 0.0494889C23.1866 0.0986962 23.0727 0.182026 22.9925 0.28894C22.9124 0.395855 22.8696 0.521552 22.8696 0.650137C22.8696 0.822564 22.9465 0.987929 23.0832 1.10985C23.22 1.23178 23.4055 1.30027 23.5989 1.30027Z" fill="white"/>
</svg>
